<svg xmlns="http://www.w3.org/2000/svg" version="1.1" xmlns:xlink="http://www.w3.org/1999/xlink" xmlns:svgjs="http://svgjs.com/svgjs" width="1024" height="576" preserveAspectRatio="none" viewBox="0 0 1024 576"><g mask="url(&quot;#SvgjsMask1305&quot;)" fill="none"><path d="M729.47 123.52L853.31 195.02L853.31 338.02L729.47 409.52L605.62 338.02L605.62 195.02zM853.31 -90.98L977.16 -19.48L977.16 123.52L853.31 195.02L729.47 123.52L729.47 -19.48zM853.31 338.02L977.16 409.52L977.16 552.52L853.31 624.02L729.47 552.52L729.47 409.52zM1224.85 552.52L1348.69 624.02L1348.69 767.02L1224.85 838.52L1101 767.02L1101 624.02z" stroke="rgba(197, 28, 33, 1)" stroke-width="2"></path><path d="M715.17 123.52 a14.3 14.3 0 1 0 28.6 0 a14.3 14.3 0 1 0 -28.6 0zM839.01 195.02 a14.3 14.3 0 1 0 28.6 0 a14.3 14.3 0 1 0 -28.6 0zM839.01 338.02 a14.3 14.3 0 1 0 28.6 0 a14.3 14.3 0 1 0 -28.6 0zM715.17 409.52 a14.3 14.3 0 1 0 28.6 0 a14.3 14.3 0 1 0 -28.6 0zM591.32 338.02 a14.3 14.3 0 1 0 28.6 0 a14.3 14.3 0 1 0 -28.6 0zM591.32 195.02 a14.3 14.3 0 1 0 28.6 0 a14.3 14.3 0 1 0 -28.6 0zM839.01 -90.98 a14.3 14.3 0 1 0 28.6 0 a14.3 14.3 0 1 0 -28.6 0zM962.86 -19.48 a14.3 14.3 0 1 0 28.6 0 a14.3 14.3 0 1 0 -28.6 0zM962.86 123.52 a14.3 14.3 0 1 0 28.6 0 a14.3 14.3 0 1 0 -28.6 0zM715.17 -19.48 a14.3 14.3 0 1 0 28.6 0 a14.3 14.3 0 1 0 -28.6 0zM962.86 409.52 a14.3 14.3 0 1 0 28.6 0 a14.3 14.3 0 1 0 -28.6 0zM962.86 552.52 a14.3 14.3 0 1 0 28.6 0 a14.3 14.3 0 1 0 -28.6 0zM839.01 624.02 a14.3 14.3 0 1 0 28.6 0 a14.3 14.3 0 1 0 -28.6 0zM715.17 552.52 a14.3 14.3 0 1 0 28.6 0 a14.3 14.3 0 1 0 -28.6 0zM1210.55 552.52 a14.3 14.3 0 1 0 28.6 0 a14.3 14.3 0 1 0 -28.6 0zM1334.39 624.02 a14.3 14.3 0 1 0 28.6 0 a14.3 14.3 0 1 0 -28.6 0zM1334.39 767.02 a14.3 14.3 0 1 0 28.6 0 a14.3 14.3 0 1 0 -28.6 0zM1210.55 838.52 a14.3 14.3 0 1 0 28.6 0 a14.3 14.3 0 1 0 -28.6 0zM1086.7 767.02 a14.3 14.3 0 1 0 28.6 0 a14.3 14.3 0 1 0 -28.6 0zM1086.7 624.02 a14.3 14.3 0 1 0 28.6 0 a14.3 14.3 0 1 0 -28.6 0z" fill="rgba(197, 28, 33, 1)"></path><path d="M168.17 98.43L270.37 157.43L270.37 275.43L168.17 334.43L65.98 275.43L65.98 157.43zM168.17 452.43L270.37 511.43L270.37 629.43L168.17 688.43L65.98 629.43L65.98 511.43zM270.37 -78.57L372.56 -19.57L372.56 98.43L270.37 157.43L168.17 98.43L168.17 -19.57zM372.56 98.43L474.76 157.43L474.76 275.43L372.56 334.43L270.37 275.43L270.37 157.43zM474.76 275.43L576.95 334.43L576.95 452.43L474.76 511.43L372.56 452.43L372.56 334.43zM679.14 -78.57L781.34 -19.57L781.34 98.43L679.14 157.43L576.95 98.43L576.95 -19.57zM781.34 98.43L883.53 157.43L883.53 275.43L781.34 334.43L679.14 275.43L679.14 157.43zM883.53 -78.57L985.73 -19.57L985.73 98.43L883.53 157.43L781.34 98.43L781.34 -19.57zM985.73 98.43L1087.92 157.43L1087.92 275.43L985.73 334.43L883.53 275.43L883.53 157.43zM883.53 275.43L985.73 334.43L985.73 452.43L883.53 511.43L781.34 452.43L781.34 334.43zM1087.92 -78.57L1190.11 -19.57L1190.11 98.43L1087.92 157.43L985.73 98.43L985.73 -19.57zM1087.92 275.43L1190.11 334.43L1190.11 452.43L1087.92 511.43L985.73 452.43L985.73 334.43z" stroke="rgba(197, 28, 33, 0.52)" stroke-width="2"></path></g><defs><mask id="SvgjsMask1305"><rect width="1024" height="576" fill="#ffffff"></rect></mask></defs></svg>