<svg xmlns="http://www.w3.org/2000/svg" version="1.1" xmlns:xlink="http://www.w3.org/1999/xlink" xmlns:svgjs="http://svgjs.com/svgjs" width="200" height="200" preserveAspectRatio="none" viewBox="0 0 200 200"><g mask="url(&quot;#SvgjsMask3204&quot;)" fill="none"><path d="M84.37 141.91L97.15 142.71 99.18 155.35 111.96 156.15 113.99 168.79 126.77 169.59 128.8 182.24" stroke="rgba(197, 28, 33, 1)" stroke-width="1"></path><path d="M77.86 25.47 L32.96 58.56L24.758174270523636 11.36317427052364z" stroke="rgba(33, 33, 33, 1)" stroke-width="1"></path><path d="M60.17 45.35L72.85 47.15 73.87 59.91 86.55 61.72 87.58 74.48 100.25 76.28 101.28 89.05" stroke="rgba(197, 28, 33, 1)" stroke-width="2.04" stroke-dasharray="4, 4"></path><path d="M134.49 75.14L140.05 86.67 130.02 94.63 135.59 106.17 125.55 114.13 131.12 125.66 121.09 133.62" stroke="rgba(33, 33, 33, 1)" stroke-width="2.14" stroke-dasharray="3, 2"></path><rect width="120" height="120" clip-path="url(&quot;#SvgjsClipPath3205&quot;)" x="96.8" y="3.97" fill="url(#SvgjsPattern3206)" transform="rotate(287.71, 156.8, 63.97)"></rect></g><defs><mask id="SvgjsMask3204"><rect width="200" height="200" fill="#ffffff"></rect></mask><pattern x="0" y="0" width="120" height="6" patternUnits="userSpaceOnUse" id="SvgjsPattern3206"><rect width="120" height="3" x="0" y="0" fill="rgba(250, 250, 250, 1)"></rect><rect width="120" height="3" x="0" y="3" fill="rgba(0, 0, 0, 0)"></rect></pattern><clipPath id="SvgjsClipPath3205"><circle r="30" cx="156.8" cy="63.97"></circle></clipPath></defs></svg>