<svg xmlns="http://www.w3.org/2000/svg" version="1.1" xmlns:xlink="http://www.w3.org/1999/xlink" xmlns:svgjs="http://svgjs.com/svgjs" width="250" height="250" preserveAspectRatio="none" viewBox="0 0 250 250"><g mask="url(&quot;#SvgjsMask1020&quot;)" fill="none"><circle r="2.775" cx="86.405" cy="186.715" filter="url(#SvgjsFilter1021)" fill="rgba(250, 250, 250, 1)"></circle><circle r="2.685" cx="174.245" cy="183.345" filter="url(#SvgjsFilter1021)" fill="rgba(250, 250, 250, 1)"></circle><circle r="2.855" cx="170.255" cy="163.99499999999998" filter="url(#SvgjsFilter1021)" fill="rgba(250, 250, 250, 1)"></circle><circle r="2.75" cx="115.36" cy="231.39" filter="url(#SvgjsFilter1021)" fill="rgba(250, 250, 250, 1)"></circle><circle r="3.005" cx="251.885" cy="15.745000000000001" filter="url(#SvgjsFilter1021)" fill="rgba(250, 250, 250, 1)"></circle><circle r="2.255" cx="241.20499999999998" cy="153.825" filter="url(#SvgjsFilter1021)" fill="rgba(250, 250, 250, 1)"></circle><circle r="3.86" cx="81.65" cy="121.82" filter="url(#SvgjsFilter1021)" fill="rgba(250, 250, 250, 1)"></circle><circle r="3.91" cx="50.19" cy="149.29999999999998" filter="url(#SvgjsFilter1021)" fill="rgba(250, 250, 250, 1)"></circle><circle r="3.315" cx="108.865" cy="182.445" filter="url(#SvgjsFilter1021)" fill="rgba(250, 250, 250, 1)"></circle><circle r="3.505" cx="193.265" cy="236.965" filter="url(#SvgjsFilter1021)" fill="rgba(250, 250, 250, 1)"></circle><circle r="2.785" cx="183.785" cy="39.565" filter="url(#SvgjsFilter1021)" fill="rgba(250, 250, 250, 1)"></circle><circle r="3.45" cx="152.01999999999998" cy="211.23" filter="url(#SvgjsFilter1021)" fill="rgba(250, 250, 250, 1)"></circle><circle r="3.755" cx="101.675" cy="200.725" filter="url(#SvgjsFilter1021)" fill="rgba(250, 250, 250, 1)"></circle><circle r="2.475" cx="124.265" cy="203.035" filter="url(#SvgjsFilter1021)" fill="rgba(250, 250, 250, 1)"></circle><circle r="3.84" cx="51.47" cy="168.87" filter="url(#SvgjsFilter1021)" fill="rgba(250, 250, 250, 1)"></circle><circle r="2.4" cx="85.88000000000001" cy="82.23" filter="url(#SvgjsFilter1021)" fill="rgba(250, 250, 250, 1)"></circle><circle r="2.785" cx="233.715" cy="45.185" filter="url(#SvgjsFilter1021)" fill="rgba(250, 250, 250, 1)"></circle><circle r="2.625" cx="190.475" cy="149.085" filter="url(#SvgjsFilter1021)" fill="rgba(250, 250, 250, 1)"></circle><circle r="3.91" cx="125.08" cy="242.31" filter="url(#SvgjsFilter1021)" fill="rgba(250, 250, 250, 1)"></circle><circle r="2.99" cx="237.11" cy="169.37" filter="url(#SvgjsFilter1021)" fill="rgba(250, 250, 250, 1)"></circle><path d="M162.7 86L161.5 82.7 163.8 83C164 83.1 164.3 82.9 164.5 82.6 164.4 82.2 164.2 82 164 81.9L160.9 81.5 159.8 78.4 166 79.4C166.4 79.4 166.7 79.2 166.7 78.9 166.8 78.6 166.6 78.3 166.2 78.2L159.3 77.2 158.2 74.5 162.4 69.2 165 69.5 167.6 76.4C167.7 76.5 167.8 76.6 167.9 76.6 168 76.7 168.2 76.7 168.4 76.7 168.8 76.6 168.9 76.3 168.7 76L166.3 69.7 169.4 70.2 170.8 73.4C170.7 73.5 170.8 73.5 170.9 73.6 171 73.7 171.3 73.8 171.5 73.7 171.7 73.6 171.8 73.2 171.8 72.9L170.7 70.4 174.7 70.9C174.9 71 175.2 70.8 175.3 70.5 175.3 70.2 175.1 69.9 174.9 69.8L171.2 69.3 172.6 67.5C172.8 67.2 172.7 66.8 172.5 66.7 172.3 66.5 171.9 66.4 171.6 66.7L169.8 69.1 166.6 68.5 170.5 63.7C170.7 63.4 170.7 63.1 170.4 62.9 170.2 62.7 169.8 62.7 169.6 63L165.4 68.4 162.6 68.1 160.2 61.7 161.7 59.7 168.7 60.7C169.1 60.8 169.4 60.5 169.4 60.2 169.5 59.9 169.3 59.7 168.9 59.6L162.6 58.7 164.6 56.1 167.7 56.6C168 56.7 168.3 56.4 168.4 56.2S168.1 55.6 167.8 55.4L165.4 55.1 167.8 52C168 51.8 167.9 51.4 167.6 51.2 167.5 51 167.1 51 166.9 51.3L164.4 54.3 163.5 52C163.4 51.8 163.1 51.6 162.7 51.7 162.5 51.8 162.3 52.2 162.4 52.4L163.6 55.4 161.6 57.9 159.3 51.9C159.1 51.6 158.8 51.4 158.4 51.5 158.2 51.6 158 52.1 158.1 52.3L160.8 58.9 159.2 60.9 152.4 60 151.5 57.4 155.8 52C156 51.7 156 51.4 155.7 51.2 155.4 51 155 51 154.8 51.2L151 56.1 149.8 53.2 151.6 50.8C151.8 50.6 151.8 50.3 151.5 50 151.3 49.8 151 49.9 150.7 50.1L149.3 52 147.9 48.5C147.8 48.3 147.4 48.1 147.2 48.2 146.9 48.4 146.7 48.6 146.9 48.9L148.3 52.6 145.6 52.2C145.3 52.2 145 52.4 144.9 52.6 144.9 52.9 145 53.1 145.2 53.2 145.2 53.2 145.3 53.3 145.4 53.3L148.8 53.8 150 56.8 143.3 55.9C143 55.8 142.7 56 142.7 56.4 142.7 56.5 142.7 56.7 142.9 56.8 143 56.9 143.1 57 143.2 57L150.5 58 151.4 60.4 147.2 65.7 144.3 65.3 141.7 58.9C141.6 58.5 141.3 58.4 141 58.5 140.7 58.6 140.5 58.9 140.7 59.3L143 65.1 139.8 64.7 138.7 61.8C138.5 61.6 138.2 61.5 137.9 61.5 137.6 61.7 137.4 62 137.6 62.3L138.4 64.5 134.9 64C134.6 63.9 134.4 64.1 134.3 64.5 134.3 64.6 134.4 64.8 134.6 65 134.6 65 134.7 65 134.8 65.1L138.5 65.6 136.7 67.8C136.6 68 136.6 68.4 136.8 68.6 137.1 68.8 137.5 68.7 137.6 68.5L139.7 65.8 143 66.2 138.7 71.5C138.5 71.8 138.7 72.2 138.9 72.4S139.5 72.6 139.7 72.3L144.3 66.5 147 66.9 149.5 73.2 147.7 75.5 140.6 74.4C140.3 74.4 140 74.6 139.9 75 139.9 75.1 140 75.3 140.2 75.5 140.2 75.6 140.3 75.6 140.5 75.6L146.8 76.5 144.8 79.1 141.6 78.6C141.4 78.6 141.1 78.8 141 79.1 141 79.4 141.2 79.7 141.4 79.8L144 80.1 141.8 82.9C141.7 83.1 141.7 83.5 141.9 83.7 142.2 83.9 142.6 83.8 142.8 83.6L145 80.9 145.8 83.2C145.9 83.3 146 83.4 146.1 83.4 146.2 83.6 146.5 83.6 146.6 83.6 146.9 83.4 147 83.1 147 82.8L145.8 79.8 147.8 77.3 150.2 83.3C150.3 83.6 150.6 83.8 150.8 83.7 151.2 83.5 151.3 83.2 151.3 82.9L148.6 76.2 150.4 74 157.2 74.9 158.2 77.4 153.6 83.3C153.3 83.5 153.4 83.8 153.6 84 153.9 84.3 154.2 84.2 154.4 84L158.6 78.6 159.8 81.7 157.6 84.4C157.5 84.5 157.6 85 157.8 85.2 158.1 85.4 158.5 85.3 158.6 85.1L160.3 83 161.7 86.4C161.8 86.5 161.8 86.5 161.8 86.6 162 86.7 162.3 86.8 162.4 86.7 162.7 86.6 162.8 86.2 162.7 86ZM151.2 72.9L150.5 72.8 150.3 72.2 148.3 67 148 66.4 148.5 65.9 151.8 61.6 152.3 61.1 152.9 61.2 158.4 62 159 62.1 159.3 62.7 161.3 67.8 161.6 68.5 161.2 69 157.8 73.3 157.4 73.8 156.6 73.7 151.2 72.9Z" fill="rgba(250, 250, 250, 1)"></path><path d="M60.7 109.5L62.1 113.1 59.8 112.9C59.5 112.8 59.3 113 59.1 113.3 59.2 113.7 59.4 113.9 59.7 113.9L62.6 114.3 63.8 117.1 57.8 116.2C57.5 116.3 57.2 116.5 57.1 116.7 57.1 117.1 57.3 117.4 57.6 117.4L64.3 118.3 66.1 122.6 60.9 121.3 63.5 125.9 58.9 125.3 56.3 119.1C56.3 119 56.2 119 56.2 118.9 56 118.8 55.7 118.7 55.5 118.8 55.3 118.9 55.2 119.3 55.2 119.6L57.6 125.2 54.6 124.7 53.5 122C53.5 121.9 53.4 121.8 53.3 121.7 53.2 121.7 53 121.6 52.7 121.7 52.5 121.8 52.4 122.2 52.5 122.4L53.4 124.6 49.5 124.2C49.2 124 49 124.3 48.8 124.6 48.8 124.9 49 125.2 49.4 125.2L53.2 125.7 51.8 127.6C51.6 127.8 51.7 128.2 51.9 128.4 52.1 128.6 52.5 128.5 52.7 128.2L54.5 125.9 57.5 126.3 53.8 131.1C53.6 131.4 53.7 131.7 53.9 131.9 54.1 132 54.5 132 54.7 131.8L58.8 126.5 63.4 127.1 59.7 130.9 65 131 62.2 134.7 55.5 133.8C55.1 133.8 54.9 134 54.9 134.3 54.8 134.5 55 134.8 55.4 134.9L61.4 135.6 59.6 138 56.6 137.7C56.3 137.6 56 137.8 56 138.2 55.9 138.4 56.1 138.7 56.5 138.7L58.8 139.1 56.4 142.2C56.2 142.4 56.3 142.7 56.5 142.9S57.1 143.1 57.3 142.8L59.7 139.8 60.6 141.9C60.7 142.2 61 142.3 61.3 142.2 61.6 142.1 61.8 141.8 61.6 141.5L60.5 138.7 62.3 136.3 64.6 142C64.8 142.2 65.1 142.4 65.3 142.2 65.7 142.1 65.8 141.8 65.6 141.5L63 135.3 65.9 131.6 67.3 136.7 70.1 132.2 71.8 136.5 67.8 141.8C67.6 142 67.7 142.4 67.9 142.5 68.1 142.7 68.5 142.7 68.7 142.4L72.4 137.6 73.5 140.4 71.7 142.8C71.5 143.1 71.6 143.4 71.8 143.6 72 143.7 72.4 143.8 72.6 143.5L74 141.6 75.5 145.2C75.7 145.5 76 145.7 76.3 145.5 76.5 145.3 76.7 145.1 76.5 144.8L75.1 141.2 77.4 141.4C77.6 141.5 77.9 141.3 78 141 78 140.8 77.9 140.6 77.8 140.5 77.7 140.4 77.7 140.4 77.5 140.4L74.6 140 73.4 137.2 79.4 138.1C79.7 138 80 137.8 80.1 137.6 80.1 137.3 80 137.1 79.8 137 79.7 136.9 79.7 136.9 79.6 136.9L72.9 136 71.1 131.7 76.3 133 73.7 128.4 78.3 128.9 80.9 135.2C81 135.4 81.3 135.6 81.7 135.5 81.9 135.3 82 135 82 134.7L79.6 129.1 82.6 129.6 83.7 132.3C83.7 132.6 84.1 132.7 84.5 132.5 84.7 132.4 84.8 132.1 84.8 131.8L83.8 129.7 87.7 130.1C88 130.2 88.2 130 88.4 129.6 88.3 129.5 88.2 129.3 88.1 129.2 88 129.1 88 129.1 87.8 129.1L84 128.6 85.4 126.7C85.6 126.4 85.5 126.1 85.3 125.9L85.3 125.9C85.1 125.7 84.7 125.8 84.5 126L82.7 128.4 79.7 128 83.4 123.2C83.6 122.9 83.5 122.6 83.3 122.4S82.7 122.2 82.5 122.5L78.4 127.8 73.8 127.2 77.5 123.4 72.2 123.3 75 119.6 81.7 120.5C82.1 120.5 82.3 120.2 82.3 120 82.4 119.8 82.2 119.5 81.8 119.3L75.8 118.6 77.6 116.3 80.6 116.6C80.9 116.7 81.2 116.5 81.2 116.1 81.3 115.9 81.1 115.6 80.7 115.4L78.4 115.2 80.8 112.1C81 111.8 80.9 111.5 80.7 111.3S80.1 111.2 79.9 111.4L77.5 114.5 76.6 112.4C76.6 112.3 76.5 112.2 76.4 112.1 76.2 112 76.1 112 75.9 112 75.5 112.2 75.4 112.5 75.6 112.8L76.7 115.6 74.9 118 72.6 112.3C72.5 112.3 72.5 112.2 72.4 112.1 72.2 112 72 112 71.9 112 71.5 112.2 71.4 112.5 71.6 112.8L74.2 118.9 71.3 122.7 69.9 117.6 67.1 122.1 65.4 117.8 69.4 112.5C69.6 112.3 69.5 111.9 69.3 111.7 69 111.5 68.7 111.6 68.5 111.9L64.9 116.6 63.6 113.9 65.5 111.5C65.7 111.2 65.6 110.9 65.4 110.7S64.8 110.5 64.6 110.8L63.2 112.6 61.7 109.1C61.6 109 61.6 108.9 61.5 108.8 61.4 108.8 61.1 108.7 60.9 108.8 60.7 108.9 60.5 109.2 60.7 109.5ZM69.5 120.3L70.7 124.4 75 124.5 72 127.6 74.1 131.3 69.9 130.4 67.7 134 66.5 129.9 62.2 129.8 65.1 126.7 63.1 123 67.2 124 69.5 120.3Z" fill="rgba(250, 250, 250, 1)"></path><path d="M42.9 159.2L44.6 159.4 44 160.4C43.9 160.5 43.9 160.6 44 160.8 44.2 160.8 44.4 160.8 44.4 160.7L45.3 159.4 46.9 159.5 45.2 162.1C45.1 162.3 45.1 162.5 45.2 162.5 45.4 162.7 45.5 162.6 45.6 162.5L47.6 159.6 49 159.7 50.5 162.7 49.8 163.8 46.1 163.5C46.1 163.5 46 163.6 46 163.6 45.9 163.6 45.9 163.7 45.8 163.8 45.8 164 45.9 164.1 46.1 164.1L49.5 164.4 48.6 165.7 46.9 165.6C46.8 165.5 46.8 165.6 46.7 165.6 46.6 165.6 46.6 165.7 46.6 165.9 46.6 166 46.7 166.1 46.8 166.2L48.2 166.2 47.1 167.9C47 168 47.1 168.1 47.2 168.3 47.3 168.3 47.5 168.3 47.6 168.2L48.6 166.6 49.1 167.7C49.2 167.8 49.4 167.9 49.5 167.8 49.6 167.7 49.8 167.6 49.7 167.4L49 166.1 49.9 164.8 51.3 167.5C51.4 167.7 51.5 167.7 51.7 167.7 51.8 167.6 51.9 167.4 51.8 167.3L50.3 164.2 51 163 54.4 163.3 55 164.4 53 167.4C52.9 167.5 52.9 167.7 53.1 167.8 53.2 167.9 53.4 167.8 53.5 167.7L55.3 165 56 166.5 55.1 167.8C55 167.9 55 168.1 55.1 168.2S55.5 168.2 55.6 168.1L56.3 167.1 57.1 168.8C57.2 169 57.4 169 57.5 168.9 57.6 168.9 57.7 168.7 57.7 168.6L56.8 166.8 58.1 166.9C58.2 166.9 58.4 166.8 58.4 166.6 58.4 166.5 58.2 166.3 58.1 166.3L56.5 166.2 55.8 164.8 59 165C59.2 165 59.3 164.9 59.4 164.7 59.4 164.6 59.2 164.4 59.1 164.4L55.5 164.2 54.9 163 56.8 160.2 58.2 160.3 59.7 163.4C59.8 163.5 59.9 163.6 60.1 163.5 60.2 163.4 60.3 163.3 60.3 163.1L58.9 160.3 60.5 160.4 61.1 161.8C61.2 161.9 61.4 162 61.5 161.9 61.7 161.8 61.7 161.7 61.6 161.5L61.1 160.5 63 160.6C63.1 160.6 63.3 160.5 63.3 160.3 63.3 160.2 63.2 160 63 160L61.1 159.9 61.8 158.8C61.9 158.6 61.9 158.4 61.8 158.4 61.7 158.3 61.5 158.3 61.4 158.3 61.4 158.3 61.4 158.4 61.4 158.4L60.4 159.8 58.8 159.8 60.6 156.9C60.7 156.8 60.7 156.6 60.5 156.5 60.5 156.5 60.4 156.5 60.3 156.5 60.2 156.6 60.2 156.6 60.1 156.6L58.1 159.7 56.9 159.6 55.4 156.6 56.2 155.3 59.6 155.6C59.8 155.6 60 155.5 59.9 155.3 60 155.1 59.9 155 59.7 155L56.5 154.8 57.4 153.4 58.9 153.6C59.1 153.6 59.2 153.4 59.2 153.3 59.2 153.1 59.2 153 59 153L57.8 152.9 58.8 151.4C58.9 151.3 58.8 151.1 58.7 151 58.6 151 58.5 151 58.4 151 58.4 151 58.3 151.1 58.3 151.1L57.3 152.6 56.6 151.4C56.6 151.3 56.4 151.2 56.3 151.3 56.1 151.3 56.1 151.5 56.2 151.6L56.9 153.2 56 154.6 54.5 151.5C54.5 151.4 54.3 151.3 54.1 151.4S53.9 151.6 54 151.8L55.6 155.1 54.9 156.2 51.5 156 50.8 154.7 52.8 151.7C52.9 151.6 52.9 151.4 52.7 151.3 52.7 151.3 52.6 151.3 52.5 151.3 52.4 151.3 52.4 151.4 52.3 151.4L50.5 154.1 49.8 152.7 50.7 151.3C50.8 151.2 50.8 151 50.6 150.9 50.5 150.8 50.3 150.9 50.2 151L49.5 152.1 48.8 150.5C48.7 150.4 48.5 150.3 48.4 150.3 48.2 150.4 48.2 150.6 48.2 150.7L49 152.3 47.8 152.2C47.7 152.2 47.7 152.2 47.6 152.3 47.5 152.3 47.4 152.4 47.4 152.5 47.4 152.7 47.5 152.8 47.7 152.8L49.3 152.9 50 154.4 46.8 154.2C46.6 154.1 46.5 154.3 46.5 154.4 46.4 154.6 46.6 154.7 46.7 154.7L50.3 155 50.9 156.3 49.1 159.1 47.7 159 46.1 155.7C46 155.5 45.8 155.5 45.7 155.6 45.5 155.6 45.5 155.8 45.6 155.9L47.1 159 45.5 158.8 44.7 157.3C44.6 157.2 44.4 157.1 44.3 157.2 44.1 157.3 44.1 157.5 44.1 157.6L44.8 158.8 42.9 158.7C42.8 158.7 42.8 158.7 42.8 158.7 42.7 158.8 42.6 158.9 42.6 158.9 42.6 159.1 42.7 159.2 42.9 159.2ZM51.2 156.9L51.5 156.6 51.8 156.6 54.5 156.8 54.9 156.8 55 157.1 56.2 159.5 56.4 159.8 56.2 160.1 54.6 162.4 54.5 162.7 54.1 162.7 51.4 162.5 51 162.5 50.9 162.2 49.7 159.7 49.5 159.4 49.7 159.1 51.2 156.9Z" fill="rgba(250, 250, 250, 1)"></path><path d="M138 198.6L136.3 201.5 135.2 199.8C135.1 199.6 134.8 199.5 134.5 199.6 134.3 199.8 134.2 200.1 134.4 200.3L135.7 202.5 134.4 204.9 131.8 200.2C131.6 200 131.3 199.9 131.1 200 130.8 200.2 130.7 200.5 130.9 200.7L133.9 205.8 131.8 209.4 130 205.1 128.1 209.4 126.1 205.9 129 200.7C129.1 200.7 129.1 200.6 129.1 200.5 129 200.3 129 200.1 128.8 200 128.6 199.9 128.3 200 128.1 200.2L125.5 204.9 124.2 202.6 125.5 200.4C125.5 200.3 125.5 200.2 125.5 200.1 125.5 200 125.4 199.8 125.3 199.7 125.1 199.6 124.8 199.7 124.7 199.9L123.6 201.6 121.8 198.7C121.7 198.4 121.5 198.4 121.2 198.5 121 198.6 120.9 198.9 121.1 199.2L122.7 202.1 120.7 202.1C120.4 202.1 120.2 202.4 120.2 202.6 120.2 202.9 120.4 203.1 120.7 203.1L123.3 203.1 124.6 205.4 119.4 205.5C119.1 205.5 118.9 205.7 118.9 206 118.9 206.1 119.1 206.4 119.4 206.4L125.2 206.4 127.3 209.9 122.7 209.4 125.5 213.1 121.4 213.1 118.4 208.1C118.2 207.8 117.9 207.8 117.7 207.9 117.5 208 117.4 208.3 117.5 208.6L120.3 213.1 117.7 213.2 116.3 210.9C116.2 210.6 115.9 210.5 115.6 210.7 115.4 210.8 115.3 211.1 115.5 211.4L116.5 213.2 113.1 213.2C112.8 213.2 112.6 213.4 112.6 213.7S112.8 214.2 113.1 214.2L116.5 214.1 115.6 215.9C115.4 216.2 115.5 216.5 115.7 216.6 116 216.8 116.2 216.7 116.3 216.4L117.7 214.1 120.3 214.1 117.6 218.7C117.5 219 117.6 219.3 117.8 219.4 118.1 219.6 118.4 219.5 118.5 219.2L121.4 214.1 125.5 214.1 122.8 217.8 127.3 217.3 125.3 220.8 119.5 220.8C119.2 220.8 119 221.1 119 221.3 119 221.6 119.2 221.8 119.5 221.8L124.8 221.8 123.5 224.1 120.9 224.1C120.6 224.1 120.4 224.3 120.4 224.6 120.4 224.8 120.6 225.1 120.9 225.1L122.9 225.1 121.3 228C121.1 228.3 121.2 228.6 121.5 228.7 121.7 228.8 122 228.8 122.1 228.5L123.8 225.6 124.9 227.3C125 227.5 125.3 227.6 125.5 227.5 125.7 227.4 125.8 227.2 125.8 227.1 125.8 227 125.8 226.9 125.7 226.8L124.4 224.6 125.6 222.2 128.3 226.9C128.5 227.1 128.8 227.2 129 227.1 129.2 227 129.3 226.8 129.3 226.6 129.3 226.5 129.3 226.5 129.2 226.4L126.2 221.3 128.2 217.7 130.1 222 131.9 217.7 134 221.2 131.1 226.4C131 226.6 131 226.9 131.3 227.1 131.5 227.1 131.8 227 132 226.9L134.6 222.2 135.8 224.5 134.6 226.7C134.4 226.9 134.5 227.2 134.8 227.4 135 227.5 135.3 227.4 135.5 227.2L136.4 225.5 138.2 228.4C138.3 228.7 138.6 228.6 138.9 228.6 139 228.5 139.1 228.3 139.1 228.2 139.1 228.1 139.1 228 139 227.9L137.3 225 139.4 224.9C139.6 224.9 139.8 224.7 139.8 224.5L139.8 224.5C139.8 224.2 139.6 224 139.3 224L136.7 224 135.4 221.7 140.7 221.6C141 221.6 141.2 221.4 141.2 221.1S141 220.7 140.7 220.7L134.8 220.7 132.8 217.2 137.3 217.7 134.6 214 138.7 214 141.6 219C141.8 219.3 142.1 219.3 142.3 219.2 142.5 219.1 142.6 218.8 142.5 218.5L139.8 214 142.4 213.9 143.8 216.2C143.9 216.5 144.1 216.6 144.4 216.4 144.6 216.3 144.7 216 144.6 215.7L143.5 213.9 146.9 213.9C147.2 213.9 147.4 213.7 147.4 213.4S147.2 212.9 146.9 212.9L143.5 213 144.5 211.2C144.6 211.1 144.6 211 144.6 210.9 144.6 210.7 144.5 210.6 144.4 210.5 144.1 210.3 143.8 210.4 143.7 210.7L142.4 213 139.7 213 142.4 208.4C142.4 208.3 142.4 208.2 142.4 208.1 142.4 207.9 142.3 207.8 142.2 207.7 141.9 207.5 141.6 207.6 141.6 207.9L138.7 213 134.6 213 137.3 209.3 132.7 209.8 134.7 206.3 140.6 206.3C140.9 206.3 141.1 206 141.1 205.8 141 205.5 140.9 205.3 140.6 205.3L135.3 205.3 136.6 203 139.2 203C139.5 203 139.7 202.8 139.7 202.5S139.5 202 139.2 202L137.1 202 138.8 199.1C138.9 199 138.9 198.9 138.9 198.8 138.9 198.7 138.8 198.5 138.6 198.4 138.4 198.3 138.1 198.3 138 198.6ZM135.3 210.5L133 213.5 135.3 216.5 131.5 216.2 130.1 219.6 128.5 216.2 124.8 216.6 127 213.6 124.8 210.6 128.5 210.9 130 207.5 131.5 210.9 135.3 210.5Z" fill="rgba(250, 250, 250, 1)"></path><path d="M8.9 111.3L12 106.5 13.6 106.1 15.9 108.8 15.5 110.3 10.3 112.9C10.3 112.9 10.3 112.9 10.2 113 10.1 113.1 10 113.2 10.1 113.4 10.3 113.6 10.4 113.6 10.6 113.6L15.1 111.3 14.4 113.6 12.4 114.7C12.4 114.7 12.3 114.7 12.3 114.7 12.2 114.8 12.2 115 12.3 115.2 12.3 115.3 12.5 115.4 12.7 115.3L14.1 114.7 13.5 116.4C13.4 116.6 13.5 116.8 13.7 116.9S14.1 116.8 14.2 116.6L14.7 114.9 15.4 116.2C15.5 116.4 15.7 116.4 15.9 116.3 16 116.2 16.1 116.1 16.1 115.9L15 113.9 15.8 111.5 18.1 116C18.2 116.2 18.4 116.2 18.6 116.2 18.8 116 18.9 115.9 18.8 115.7L16.1 110.5 16.7 109 20 108.2 21.2 109.5 20.9 115.2C20.9 115.4 21 115.6 21.2 115.6S21.6 115.5 21.6 115.3L21.8 110.2 23.5 112.1 23.4 114.3C23.4 114.5 23.5 114.6 23.8 114.7S24.1 114.6 24.1 114.4L24.2 112.8 25.4 114.2C25.6 114.4 25.8 114.3 26 114.2 26.1 114.1 26.1 113.9 26 113.7L24.7 112.3 26.2 112.4C26.5 112.5 26.6 112.3 26.6 112.1 26.6 111.9 26.5 111.7 26.3 111.7L24.1 111.6 22.4 109.7 27.4 110C27.6 110 27.8 109.8 27.8 109.6S27.7 109.3 27.5 109.3L21.7 109 20.6 107.7 21.7 104.4 23.3 104.1 28.1 107.2C28.3 107.3 28.5 107.3 28.7 107.1 28.8 106.9 28.7 106.7 28.5 106.6L24.3 103.8 26.7 103.3 28.6 104.6C28.8 104.7 29 104.6 29.1 104.4 29.2 104.3 29.2 104 29 103.9L27.8 103.1 29.6 102.7C29.7 102.7 29.8 102.5 29.8 102.3 29.8 102.1 29.6 102 29.4 102L27.6 102.4 28.4 101.2C28.5 101 28.4 100.8 28.3 100.7 28.2 100.6 28 100.6 27.9 100.7 27.9 100.7 27.8 100.8 27.8 100.8L26.6 102.6 24.1 103.1 26.9 98.9C27 98.7 27 98.5 26.8 98.4 26.6 98.3 26.5 98.4 26.4 98.4 26.3 98.5 26.3 98.5 26.3 98.5L23.1 103.4 21.6 103.7 19.2 101.1 19.7 99.6 24.9 96.9C25 96.8 25.1 96.6 25 96.5 24.9 96.3 24.7 96.2 24.5 96.3L20 98.6 20.8 96.2 22.7 95.2C22.9 95.1 23.1 94.9 22.9 94.7 22.8 94.5 22.6 94.5 22.4 94.5L21.1 95.2 21.7 93.5C21.7 93.3 21.6 93.1 21.4 93 21.3 93 21.2 93 21.1 93.1 21 93.1 21 93.1 21 93.2L20.4 95 19.7 93.7C19.6 93.5 19.4 93.5 19.3 93.5 19.2 93.5 19.2 93.5 19.2 93.6 19.1 93.7 19 93.8 19.1 94L20.1 96 19.3 98.3 17.1 93.8C16.9 93.7 16.7 93.6 16.6 93.7 16.5 93.7 16.5 93.7 16.4 93.7 16.3 93.8 16.3 94 16.4 94.2L19 99.3 18.5 100.8 15.1 101.6 14 100.4 14.3 94.6C14.3 94.4 14.1 94.2 13.9 94.2S13.5 94.4 13.5 94.6L13.3 99.6 11.6 97.8 11.7 95.6C11.7 95.4 11.6 95.2 11.4 95.2 11.2 95.2 11 95.3 11 95.5L10.9 97 9.7 95.6C9.6 95.5 9.4 95.4 9.2 95.6 9 95.7 9 96 9.1 96.1L10.4 97.5 8.9 97.4C8.8 97.4 8.7 97.4 8.7 97.5 8.6 97.6 8.5 97.7 8.5 97.8 8.5 98 8.7 98.1 8.9 98.1L11.1 98.3 12.7 100.1 7.7 99.8C7.6 99.8 7.5 99.9 7.4 100 7.4 100 7.3 100.1 7.3 100.2 7.3 100.4 7.5 100.6 7.7 100.6L13.4 100.9 14.5 102.1 13.5 105.4 11.9 105.8 7 102.6C6.9 102.5 6.7 102.5 6.6 102.6 6.5 102.7 6.5 102.7 6.6 102.7 6.4 102.9 6.4 103.1 6.6 103.2L10.9 105.9 8.4 106.5 6.5 105.3C6.4 105.2 6.2 105.3 6.1 105.4 6.1 105.4 6.1 105.4 6.1 105.4 5.9 105.5 6 105.8 6.2 105.9L7.4 106.7 5.6 107.1C5.5 107.1 5.5 107.1 5.4 107.2 5.3 107.3 5.3 107.4 5.3 107.5 5.4 107.7 5.6 107.8 5.8 107.8L7.5 107.4 6.7 108.6C6.6 108.8 6.7 109.1 6.9 109.2 7 109.2 7.3 109.2 7.3 109.1L8.5 107.2 11 106.7 8.2 110.9C8.1 111.1 8.2 111.3 8.4 111.5 8.5 111.5 8.8 111.5 8.9 111.3ZM16.2 107.9L14.4 105.9 14.1 105.6 14.3 105.2 15.1 102.7 15.2 102.3 15.6 102.2 18.2 101.7 18.6 101.6 18.9 101.9 20.7 103.9 21 104.2 20.9 104.6 20.1 107.1 19.9 107.5 19.5 107.6 16.9 108.2 16.5 108.3 16.2 107.9Z" fill="rgba(250, 250, 250, 1)"></path><path d="M185.8 66.3L187.7 68.1 186 68.7C185.9 68.7 185.7 69 185.8 69.2 185.9 69.4 186.1 69.6 186.3 69.5L188.5 68.8 190.3 70.5 185.8 71.9C185.5 72 185.4 72.2 185.5 72.4 185.5 72.7 185.7 72.8 186 72.7L191 71.1 192.6 72.6 191.5 77.6 189.7 78.2 185.6 74.4C185.6 74.4 185.5 74.4 185.4 74.4 185.3 74.3 185.1 74.4 185 74.4 184.8 74.7 184.9 74.9 185.1 75L188.8 78.5 186.5 79.2 184.6 77.5C184.6 77.4 184.5 77.4 184.4 77.4 184.2 77.3 184.1 77.4 183.9 77.5 183.8 77.7 183.9 77.9 184 78.1L185.6 79.5 182.7 80.4C182.5 80.5 182.4 80.7 182.4 81 182.6 81.2 182.8 81.3 183 81.2L185.6 80.4 185.3 82.1C185.2 82.3 185.4 82.5 185.6 82.6 185.8 82.6 186.1 82.5 186.2 82.3L186.6 80.1 188.9 79.4 187.9 83.9C187.9 84.2 188 84.4 188.2 84.4 188.5 84.5 188.7 84.4 188.7 84.1L189.8 79.1 191.8 78.4 195.5 81.8 195.1 83.7 190.1 85.3C189.8 85.4 189.7 85.7 189.8 85.9 189.8 86.1 190.1 86.2 190.3 86.2L194.9 84.7 194.4 87.1 192.1 87.8C191.9 87.8 191.8 88.1 191.8 88.3S192.2 88.6 192.5 88.6L194.2 88 193.6 90.9C193.5 91.1 193.7 91.3 194 91.4 194.1 91.4 194.4 91.3 194.5 91.1L195.1 88.2 196.5 89.5C196.7 89.6 196.9 89.6 197.1 89.4 197.2 89.3 197.2 89 197.1 88.8L195.3 87.3 195.8 84.9 199.4 88.1C199.6 88.3 199.8 88.3 200.1 88.1 200.2 88 200.2 87.6 200 87.5L196 83.9 196.4 82 201.3 80.5 202.8 81.9 201.7 86.9C201.6 87.2 201.8 87.4 202 87.4 202.2 87.5 202.5 87.4 202.6 87.1L203.6 82.6 205.4 84.2 204.9 86.4C204.8 86.6 205 86.8 205.2 86.8 205.4 86.9 205.6 86.8 205.7 86.5L206.1 84.8 208.1 86.7C208.3 86.8 208.6 86.8 208.7 86.7 208.9 86.5 208.9 86.2 208.7 86.1L206.6 84.1 208.5 83.5C208.7 83.3 208.8 83.1 208.8 82.9 208.7 82.8 208.6 82.6 208.4 82.6 208.4 82.6 208.3 82.6 208.2 82.6L205.8 83.4 204 81.8 208.8 80.2C209 80.2 209.2 80 209.1 79.7 209 79.6 208.9 79.5 208.8 79.4 208.7 79.4 208.6 79.4 208.5 79.4L203.3 81.1 201.9 79.8 203 74.8 205.1 74.2 208.9 77.7C209.1 77.9 209.4 77.9 209.5 77.6 209.7 77.5 209.7 77.2 209.5 77L206 73.9 208.3 73.1 210 74.7C210.1 74.8 210.4 74.8 210.6 74.6 210.7 74.4 210.8 74.2 210.5 74L209.3 72.8 211.8 72C212 72 212.1 71.7 212 71.5 212 71.4 211.8 71.2 211.7 71.2 211.7 71.2 211.6 71.2 211.5 71.2L208.9 72 209.3 70C209.3 69.8 209.2 69.6 209 69.5 208.7 69.5 208.5 69.7 208.5 69.8L207.9 72.3 205.6 73.1 206.7 68.2C206.8 67.9 206.6 67.7 206.3 67.6S205.9 67.7 205.8 68L204.6 73.4 202.7 74 198.9 70.6 199.4 68.4 204.5 66.8C204.7 66.7 204.9 66.5 204.8 66.2 204.8 66.1 204.6 66 204.5 66 204.4 65.9 204.3 65.9 204.2 66L199.6 67.5 200.1 65.1 202.4 64.3C202.6 64.3 202.7 64.1 202.7 63.8 202.6 63.6 202.4 63.5 202.2 63.5L200.3 64.1 200.9 61.5C200.9 61.4 200.7 61.1 200.6 61 200.3 61 200 61.2 200 61.3L199.4 63.9 198.1 62.6C198 62.6 197.9 62.6 197.9 62.6 197.7 62.5 197.5 62.6 197.4 62.6 197.3 62.9 197.3 63.1 197.4 63.3L199.2 64.9 198.7 67.3 195.2 64C194.9 63.8 194.7 63.8 194.6 64 194.4 64.2 194.4 64.5 194.5 64.6L198.5 68.2 198 70.4 193.2 71.9 191.7 70.6 192.9 65.1C192.9 64.9 192.8 64.7 192.5 64.6 192.3 64.6 192.1 64.7 192.1 65L191 69.9 189.2 68.3 189.8 65.7C189.8 65.6 189.6 65.3 189.4 65.2 189.1 65.2 188.9 65.4 188.9 65.6L188.4 67.6 186.4 65.7C186.3 65.7 186.3 65.7 186.2 65.7 186 65.6 185.8 65.7 185.7 65.7 185.6 66 185.6 66.2 185.8 66.3ZM197.8 71.3L198.4 71.2 198.7 71.5 201.8 74.3 202.1 74.7 202 75.2 201.2 79.1 201.1 79.6 200.6 79.8 196.7 81.1 196.2 81.2 195.8 80.9 192.8 78.1 192.3 77.7 192.4 77.2 193.3 73.3 193.4 72.8 194 72.6 197.8 71.3Z" fill="rgba(250, 250, 250, 1)"></path><path d="M71.9 43.5L70.2 52.6 63.4 57.2 62.8 49 68.9 42.1C68.9 42.1 68.9 42 68.9 42 69 41.8 68.9 41.5 68.8 41.3 68.5 41.1 68.1 41.1 68 41.4L62.7 47.5 62.4 43.5 64.7 40.8C64.7 40.8 64.8 40.7 64.8 40.7 64.8 40.5 64.7 40.2 64.6 40 64.3 39.8 63.9 39.8 63.8 40.1L62.2 41.9 62 39C62 38.7 61.6 38.5 61.4 38.5 61 38.4 60.9 38.8 60.9 39.1L61 42 59.2 40.4C59 40.1 58.6 40.2 58.4 40.5 58.2 40.7 58.2 41.1 58.5 41.3L61.3 43.6 61.5 47.5 55.4 42.2C55.1 42 54.7 42 54.6 42.3 54.3 42.6 54.4 43 54.7 43.1L61.6 49.2 62.2 57.4 54.7 53.7 51.7 45C51.6 44.7 51.3 44.5 51 44.6 50.7 44.8 50.5 45.1 50.6 45.3L53.3 53.1 49.7 51.3 48.6 48.1C48.5 47.8 48.2 47.6 47.9 47.7 47.6 47.8 47.5 48.1 47.6 48.4L48.3 50.6 45.5 49.3C45.3 49 44.9 49.2 44.8 49.5 44.6 49.8 44.7 50.1 45 50.3L47.6 51.5 45.4 52.3C45.1 52.4 45 52.7 45.1 53S45.5 53.5 45.8 53.4L49 52.2 52.6 54 44.9 56.7C44.6 56.8 44.5 57.1 44.6 57.4 44.7 57.6 45 57.8 45.3 57.7L54 54.6 61.4 58.2 54.6 62.8 45.8 61.2C45.5 61.1 45.2 61.4 45.1 61.7 45 62 45.3 62.3 45.6 62.4L53.5 63.9 50.2 66.1 46.7 65.4C46.4 65.4 46.1 65.6 46 65.9 45.9 66.3 46.2 66.5 46.4 66.6L48.8 67 46.4 68.7C46.2 68.9 46 69.3 46.2 69.5 46.5 69.8 46.8 69.9 47 69.6L49.4 68 49 70.4C49 70.7 49.2 71 49.4 71.1 49.7 71.1 50 70.9 50.1 70.7 50.1 70.7 50.1 70.6 50.1 70.6L50.8 67.2 54.1 64.9 52.6 72.9C52.6 73.2 52.8 73.4 53 73.5 53.3 73.5 53.6 73.4 53.7 73.2 53.7 73.2 53.7 73.1 53.7 73.1L55.4 64.1 62.2 59.5 62.8 67.7 56.7 74.6C56.5 74.8 56.5 75.2 56.8 75.4 57.1 75.6 57.5 75.6 57.6 75.3L62.9 69.2 63.2 73.2 60.9 75.9C60.7 76.1 60.7 76.5 61 76.7 61.3 76.9 61.7 76.9 61.8 76.6L63.4 74.8 63.6 77.7C63.6 77.9 64 78.2 64.2 78.2 64.5 78.2 64.7 78.1 64.8 77.9 64.8 77.8 64.9 77.7 64.8 77.5L64.6 74.6 66.4 76.2C66.7 76.5 67.1 76.4 67.2 76.1 67.2 76.1 67.3 76 67.3 76 67.4 75.8 67.3 75.5 67.1 75.3L64.4 73 64.1 69 70.2 74.3C70.4 74.6 70.8 74.5 71 74.2 71 74.2 71 74.1 71 74.1 71.1 73.9 71 73.6 70.9 73.4L63.9 67.3 63.3 59.2 70.7 62.7 73.8 71.5C73.9 71.8 74.2 71.9 74.5 71.8 74.8 71.7 74.9 71.4 74.8 71.1L72.2 63.5 75.8 65.2 77 68.5C77.1 68.8 77.4 68.9 77.7 68.8S78.1 68.4 78 68.1L77.2 65.9 79.8 67.1C80.1 67.3 80.4 67.2 80.6 66.9 80.7 66.6 80.6 66.3 80.3 66.1L77.7 64.9 80 64.1C80.1 64.1 80.3 64 80.3 63.8S80.4 63.5 80.3 63.3C80.2 63 79.9 62.9 79.6 63L76.4 64.1 72.8 62.4 80.5 59.7C80.6 59.6 80.8 59.6 80.9 59.4 80.9 59.3 80.9 59 80.9 58.9 80.8 58.6 80.5 58.4 80.2 58.5L71.4 61.6 64 58 70.8 53.4 79.9 55.1C80.1 55.1 80.4 55 80.5 54.8 80.5 54.8 80.6 54.7 80.6 54.7 80.6 54.3 80.4 54.1 80.2 54L72.3 52.5 75.6 50.3 79 51C79.3 51 79.6 50.9 79.7 50.7 79.7 50.7 79.7 50.6 79.7 50.6 79.8 50.2 79.5 50 79.3 49.9L76.9 49.4 79.4 47.8C79.4 47.7 79.5 47.6 79.6 47.5 79.7 47.3 79.7 47.1 79.5 46.9 79.3 46.6 79 46.5 78.7 46.7L76.3 48.4 76.7 46C76.8 45.7 76.5 45.4 76.3 45.3 76 45.3 75.7 45.5 75.6 45.7L74.9 49.2 71.6 51.4 73.1 43.5C73.2 43.2 72.9 42.9 72.7 42.8 72.3 43 71.9 43.2 71.9 43.5Z" fill="rgba(250, 250, 250, 1)"></path><path d="M-10.8 80.4L-12.2 74.9-9.6 70.5-7.1 74.9-8.7 80.5C-8.7 80.5-8.7 80.5-8.7 80.5-8.7 80.7-8.5 80.8-8.4 80.9-8.2 80.9-8 80.8-8 80.6L-6.6 75.8-5.4 77.9-6 80.1C-6 80.1-6 80.1-6 80.1-6 80.3-5.8 80.4-5.7 80.5-5.5 80.5-5.3 80.4-5.3 80.2L-4.8 78.7-3.9 80.4C-3.9 80.5-3.6 80.6-3.5 80.5-3.3 80.4-3.3 80.1-3.3 80L-4.2 78.4-2.8 78.8C-2.5 78.9-2.3 78.8-2.3 78.6-2.3 78.3-2.4 78.1-2.6 78.1L-4.8 77.6-5.9 75.4-1.1 76.8C-0.9 76.8-0.7 76.7-0.7 76.5-0.6 76.3-0.7 76.1-0.9 76.1L-6.5 74.5-9 70-3.8 70.1 0.3 74.2C0.4 74.3 0.6 74.3 0.7 74.2 0.9 74.1 0.9 73.9 0.7 73.7L-2.8 70.1-0.3 70.1 1.2 71.6C1.3 71.8 1.5 71.8 1.7 71.6 1.8 71.5 1.8 71.3 1.7 71.2L0.6 70.1 2.6 70.1C2.8 70.2 2.9 70 2.9 69.8 2.9 69.6 2.8 69.4 2.6 69.4L0.8 69.4 1.8 68.4C2 68.2 2 68 1.8 67.9S1.5 67.7 1.3 67.9L-0.2 69.4-2.7 69.4 0.9 65.8C1.1 65.7 1.1 65.5 0.9 65.3 0.8 65.2 0.6 65.2 0.5 65.3L-3.7 69.4-8.8 69.3-6.2 64.9-0.8 63.5C-0.6 63.4-0.5 63.2-0.5 63-0.6 62.8-0.8 62.7-1 62.7L-5.9 64-4.6 61.9-2.4 61.3C-2.2 61.3-2.2 61.1-2.2 60.8-2.2 60.6-2.4 60.6-2.6 60.6L-4 61-3.1 59.4C-3.1 59.2-3 59-3.3 58.9-3.5 58.8-3.7 58.8-3.7 59L-4.7 60.6-5.1 59.2C-5.1 59-5.3 58.9-5.5 58.9-5.6 59-5.8 59.1-5.8 59.2-5.8 59.2-5.8 59.3-5.8 59.3L-5.2 61.5-6.5 63.6-7.8 58.7C-7.8 58.5-8 58.4-8.2 58.4-8.3 58.5-8.5 58.7-8.5 58.8-8.5 58.8-8.5 58.9-8.5 58.9L-7 64.4-9.6 68.9-12.1 64.4-10.5 58.9C-10.5 58.6-10.6 58.4-10.8 58.4-11 58.4-11.2 58.5-11.2 58.7L-12.6 63.6-13.8 61.4-13.3 59.3C-13.2 59-13.3 58.8-13.5 58.8-13.7 58.8-14 58.9-14 59.1L-14.4 60.6-15.3 59C-15.3 58.8-15.6 58.7-15.8 58.8-15.9 58.9-16 59-16 59.2-16 59.2-16 59.3-15.9 59.4L-15 61-16.5 60.5C-16.7 60.5-16.9 60.6-16.9 60.8-16.9 60.8-16.9 60.9-16.9 60.9-16.9 61-16.7 61.2-16.6 61.2L-14.5 61.8-13.2 64-18.1 62.6C-18.3 62.6-18.5 62.7-18.5 62.9-18.5 62.9-18.5 63-18.5 63-18.5 63.1-18.4 63.2-18.2 63.3L-12.7 64.9-10.1 69.3-15.3 69.3-19.3 65.2C-19.5 65-19.7 65-19.8 65.2-20 65.3-20 65.5-19.8 65.7L-16.3 69.3-18.8 69.3-20.3 67.7C-20.5 67.6-20.7 67.6-20.8 67.7S-21 68.1-20.8 68.2L-19.8 69.3-21.6 69.3C-21.8 69.3-21.9 69.4-21.9 69.6-21.9 69.8-21.8 70-21.6 70L-19.8 70-20.8 71C-20.9 71.1-21 71.1-21 71.3S-20.9 71.5-20.8 71.6C-20.7 71.7-20.5 71.7-20.4 71.6L-18.8 70-16.3 70.1-19.9 73.7C-20 73.7-20.1 73.8-20.1 73.9-20.1 74-20 74.1-20 74.2-19.8 74.3-19.6 74.3-19.5 74.2L-15.3 70.1-10.2 70.2-12.8 74.6-18.4 76.1C-18.5 76.2-18.6 76.3-18.6 76.4-18.6 76.4-18.6 76.5-18.6 76.5-18.6 76.7-18.4 76.8-18.2 76.8L-13.4 75.5-14.6 77.6-16.8 78.2C-16.9 78.3-17.1 78.4-17.1 78.5-17.1 78.5-17.1 78.6-17.1 78.6-17 78.8-16.8 78.9-16.6 78.9L-15.2 78.5-16.1 80.1C-16.1 80.1-16.2 80.2-16.2 80.3-16.2 80.4-16.1 80.6-16 80.6-15.8 80.7-15.5 80.7-15.5 80.5L-14.6 78.9-14.2 80.4C-14.1 80.6-13.9 80.6-13.7 80.6-13.5 80.6-13.5 80.4-13.5 80.2L-14 78.1-12.7 75.9-11.5 80.8C-11.4 81-11.2 81.1-11 81.1-10.8 80.9-10.7 80.7-10.8 80.4Z" fill="rgba(250, 250, 250, 1)"></path><path d="M122.9 101.6L127.2 100 128.4 100.6 128.6 103.4 127.6 104.1 123.1 103.3C123 103.3 123 103.3 122.9 103.3 122.8 103.4 122.7 103.4 122.7 103.6 122.7 103.8 122.8 103.9 122.9 103.9L126.9 104.6 125.3 105.7 123.5 105.5C123.5 105.5 123.5 105.5 123.5 105.5 123.4 105.5 123.3 105.5 123.2 105.7 123.2 105.8 123.3 106 123.5 106L124.6 106.3 123.4 107.1C123.3 107.2 123.3 107.3 123.3 107.5S123.6 107.6 123.8 107.6L124.9 106.7 124.8 107.9C124.7 108 124.8 108.2 125 108.2 125.1 108.2 125.3 108.1 125.3 108L125.6 106.2 127.3 105.1 126.6 109C126.6 109.2 126.7 109.4 126.8 109.4 127 109.4 127.1 109.3 127.2 109.1L127.9 104.6 129 103.8 131.5 105 131.6 106.3 128.7 109.9C128.6 110 128.7 110.2 128.8 110.3S129.1 110.4 129.2 110.2L131.7 107.1 131.9 109.1 130.8 110.5C130.7 110.6 130.7 110.8 130.9 110.9S131.1 111 131.2 110.9L132 109.9 132.1 111.4C132.1 111.6 132.3 111.7 132.5 111.7 132.7 111.6 132.8 111.5 132.7 111.4L132.6 109.9 133.5 110.6C133.6 110.8 133.8 110.8 133.9 110.6 134 110.5 134 110.3 133.9 110.2L132.5 109.1 132.3 107 135.4 109.7C135.5 109.8 135.8 109.7 135.9 109.6S135.9 109.3 135.8 109.2L132.3 106.3 132.1 104.9 134.4 103.3 135.6 103.9 137.2 108.2C137.3 108.4 137.4 108.4 137.6 108.4 137.8 108.3 137.8 108.1 137.8 108L136.4 104.2 138.2 105 138.8 106.7C138.8 106.9 139 106.9 139.2 106.9 139.3 106.8 139.4 106.7 139.3 106.5L138.9 105.4 140.3 106C140.4 106.1 140.5 106 140.6 105.9 140.7 105.7 140.6 105.5 140.5 105.5L139.2 104.9 140.3 104.5C140.4 104.4 140.5 104.2 140.4 104.1 140.4 103.9 140.3 103.9 140.1 103.9 140.1 103.9 140.1 103.9 140.1 103.9L138.4 104.5 136.6 103.7 140.4 102.3C140.5 102.2 140.6 102.1 140.6 101.9 140.5 101.8 140.4 101.7 140.3 101.7 140.2 101.7 140.2 101.7 140.2 101.7L135.8 103.4 134.7 102.8 134.4 100 135.5 99.3 140 100C140.2 100.1 140.3 99.9 140.4 99.8 140.4 99.6 140.3 99.5 140.1 99.4L136.1 98.8 137.8 97.6 139.5 97.9C139.7 97.9 139.8 97.9 139.8 97.7 139.9 97.5 139.7 97.4 139.6 97.3L138.4 97.2 139.6 96.3C139.7 96.2 139.8 96 139.7 95.9 139.6 95.8 139.5 95.8 139.4 95.8 139.4 95.8 139.4 95.8 139.3 95.8L138.1 96.7 138.3 95.5C138.3 95.3 138.2 95.2 138.1 95.2 138 95.2 138 95.2 138 95.2 137.9 95.2 137.8 95.3 137.7 95.4L137.4 97.1 135.8 98.3 136.5 94.3C136.5 94.2 136.4 94 136.2 94 136.2 94 136.2 94 136.1 94 136 94 135.9 94.1 135.9 94.2L135.1 98.8 134.1 99.5 131.5 98.4 131.4 97.1 134.4 93.5C134.5 93.4 134.4 93.2 134.3 93.1S134 93 133.9 93.1L131.3 96.3 131.1 94.3 132.2 92.9C132.3 92.8 132.3 92.6 132.2 92.5 132.1 92.4 131.9 92.4 131.8 92.5L131.1 93.4 130.9 91.9C130.9 91.8 130.8 91.7 130.6 91.7 130.4 91.7 130.3 91.9 130.3 92L130.4 93.5 129.5 92.7C129.5 92.7 129.4 92.6 129.4 92.6 129.3 92.7 129.2 92.7 129.2 92.8 129.1 92.9 129.1 93.1 129.2 93.2L130.5 94.3 130.7 96.3 127.6 93.7C127.6 93.7 127.5 93.7 127.4 93.7 127.3 93.7 127.3 93.7 127.2 93.7 127.1 93.9 127.2 94.1 127.3 94.2L130.8 97.1 130.9 98.4 128.7 100 127.4 99.5 125.9 95.2C125.8 95 125.7 94.9 125.6 95 125.5 95 125.5 95 125.5 95 125.3 95 125.2 95.2 125.3 95.4L126.7 99.1 124.9 98.3 124.3 96.6C124.2 96.5 124.1 96.5 124 96.5 124 96.5 123.9 96.5 123.9 96.5 123.8 96.5 123.7 96.7 123.7 96.9L124.2 98 122.8 97.4C122.8 97.3 122.7 97.3 122.7 97.3 122.5 97.4 122.4 97.4 122.4 97.5 122.4 97.7 122.4 97.8 122.5 97.9L123.9 98.5 122.8 98.9C122.6 99 122.5 99.1 122.6 99.3 122.7 99.4 122.9 99.5 123 99.4L124.6 98.8 126.4 99.7 122.7 101.1C122.5 101.2 122.5 101.3 122.5 101.5 122.6 101.6 122.7 101.7 122.9 101.6ZM129.2 103L129 100.8 129 100.5 129.2 100.3 131 99.1 131.3 98.9 131.6 99 133.5 99.9 133.8 100 133.8 100.4 134 102.5 134.1 102.9 133.8 103.1 132.1 104.3 131.8 104.5 131.5 104.3 129.5 103.5 129.2 103.3 129.2 103Z" fill="rgba(250, 250, 250, 1)"></path><path d="M221.7-9.6L217.1-4.4 211-4.1 213.8-9.6 220.4-11.7C220.4-11.7 220.4-11.7 220.4-11.7 220.6-11.8 220.6-12 220.6-12.2 220.5-12.5 220.3-12.6 220.1-12.5L214.3-10.6 215.7-13.3 218.2-14.1C218.2-14.1 218.3-14.2 218.3-14.2 218.4-14.3 218.4-14.5 218.4-14.7 218.4-15 218.1-15.1 217.9-14.9L216.1-14.4 217.2-16.4C217.2-16.5 217.1-16.8 217-16.9 216.8-17.1 216.5-16.9 216.4-16.8L215.4-14.8 214.8-16.6C214.8-16.8 214.5-16.9 214.3-16.8 214-16.7 213.9-16.5 214.1-16.2L214.9-13.7 213.5-11.1 211.7-16.9C211.6-17.1 211.3-17.3 211.1-17.1 210.9-17.1 210.7-16.8 210.9-16.6L212.9-10 210.1-4.5 206.7-9.7 208.2-16.5C208.3-16.8 208.1-17 207.9-17 207.7-17.1 207.5-16.9 207.4-16.7L206.1-10.7 204.5-13.2 205-15.8C205.1-16 204.9-16.2 204.7-16.3 204.5-16.3 204.3-16.2 204.2-16L203.9-14.2 202.6-16.2C202.5-16.4 202.2-16.5 202-16.3 201.8-16.2 201.8-15.9 201.9-15.7L203.1-13.9 201.3-14.3C201.1-14.3 200.9-14.2 200.8-14S200.9-13.5 201.2-13.5L203.7-12.9 205.3-10.4 199.3-11.7C199.1-11.8 198.9-11.6 198.8-11.4 198.8-11.2 198.9-11 199.2-10.9L206-9.4 209.3-4.3 203.1-4 198.1-8.5C197.9-8.6 197.7-8.6 197.5-8.4 197.3-8.2 197.4-8 197.5-7.8L202-3.7 199-3.6 197.1-5.4C196.9-5.6 196.6-5.5 196.4-5.4 196.2-5.1 196.3-4.9 196.4-4.8L197.7-3.6 195.5-3.4C195.4-3.4 195.1-3.2 195.1-3 195.2-2.7 195.4-2.5 195.6-2.6L197.8-2.7 196.6-1.3C196.4-1.1 196.5-0.9 196.6-0.7 196.8-0.6 197-0.6 197.1-0.7 197.1-0.7 197.2-0.7 197.2-0.7L199-2.7 202-2.8 197.9 1.7C197.8 1.9 197.8 2.1 197.9 2.3 198.1 2.4 198.3 2.4 198.5 2.3 198.5 2.3 198.5 2.3 198.5 2.3L203.1-2.9 209.3-3.2 206.5 2.3 199.9 4.4C199.6 4.5 199.5 4.7 199.6 4.9 199.7 5.2 200 5.3 200.2 5.2L206 3.3 204.6 6 202.1 6.8C201.8 6.9 201.7 7.2 201.8 7.4 201.9 7.7 202.2 7.8 202.4 7.6L204.1 7.1 203.1 9.1C203 9.2 203.1 9.5 203.3 9.6 203.4 9.7 203.6 9.7 203.8 9.6 203.8 9.6 203.9 9.5 203.9 9.4L204.9 7.5 205.5 9.2C205.5 9.5 205.8 9.6 206 9.5 206 9.5 206.1 9.4 206.1 9.4 206.2 9.3 206.3 9.1 206.3 8.9L205.4 6.4 206.8 3.7 208.6 9.5C208.7 9.7 209 9.8 209.2 9.7 209.2 9.7 209.2 9.7 209.2 9.7 209.4 9.6 209.4 9.3 209.4 9.2L207.3 2.6 210.2-2.9 213.5 2.3 212 9.1C212 9.3 212.1 9.5 212.3 9.5 212.6 9.6 212.8 9.5 212.8 9.2L214.2 3.3 215.8 5.8 215.2 8.4C215.2 8.6 215.3 8.8 215.6 8.9S216 8.8 216.1 8.5L216.4 6.8 217.6 8.6C217.7 8.8 218 8.9 218.2 8.8 218.4 8.6 218.4 8.4 218.3 8.2L217.1 6.4 218.9 6.7C219 6.8 219.1 6.8 219.2 6.7S219.4 6.5 219.4 6.4C219.5 6.1 219.3 5.9 219.1 5.9L216.6 5.3 214.9 2.8 220.9 4.1C221 4.1 221.2 4.2 221.3 4.1 221.4 4 221.5 3.9 221.5 3.8 221.5 3.5 221.4 3.3 221.2 3.3L214.4 1.8 211-3.4 217.2-3.7 222.3 0.9C222.5 1 222.7 1.1 222.9 1 222.9 1 222.9 0.9 222.9 0.9 223.1 0.7 223 0.5 223 0.3L218.5-3.7 221.4-3.9 223.4-2C223.6-1.9 223.8-1.9 223.9-2 223.9-2 224-2 224-2 224.2-2.2 224.1-2.5 224-2.6L222.6-3.8 224.8-4C224.9-4 225-4 225.1-4 225.2-4.1 225.3-4.3 225.3-4.5 225.2-4.7 225.1-4.9 224.9-4.9L222.7-4.7 223.9-6.1C224-6.3 224-6.6 223.9-6.7 223.7-6.9 223.4-6.8 223.3-6.7L221.5-4.8 218.5-4.6 222.5-9.1C222.7-9.3 222.6-9.6 222.5-9.7 222.2-9.8 221.9-9.8 221.7-9.6Z" fill="rgba(250, 250, 250, 1)"></path></g><defs><mask id="SvgjsMask1020"><rect width="250" height="250" fill="#ffffff"></rect></mask><filter id="SvgjsFilter1021"><feGaussianBlur stdDeviation="1"></feGaussianBlur></filter></defs></svg>