<svg xmlns="http://www.w3.org/2000/svg" version="1.1" xmlns:xlink="http://www.w3.org/1999/xlink" xmlns:svgjs="http://svgjs.com/svgjs" width="250" height="250" preserveAspectRatio="none" viewBox="0 0 250 250"><g mask="url(&quot;#SvgjsMask1013&quot;)" fill="none"><use xlink:href="#SvgjsPath1014" x="30" y="30" stroke="rgba(250, 250, 250, 1)"></use><use xlink:href="#SvgjsPath1014" x="30" y="90" stroke="rgba(255, 0, 0, 1)"></use><use xlink:href="#SvgjsPath1015" x="30" y="150" stroke="rgba(255, 0, 0, 1)"></use><use xlink:href="#SvgjsPath1014" x="30" y="210" stroke="rgba(250, 250, 250, 1)"></use><use xlink:href="#SvgjsPath1016" x="30" y="270" stroke="rgba(255, 0, 0, 1)"></use><use xlink:href="#SvgjsPath1015" x="90" y="30" stroke="rgba(255, 0, 0, 1)"></use><use xlink:href="#SvgjsPath1016" x="90" y="90" stroke="rgba(255, 0, 0, 1)"></use><use xlink:href="#SvgjsPath1015" x="90" y="150" stroke="rgba(250, 250, 250, 1)"></use><use xlink:href="#SvgjsPath1016" x="90" y="210" stroke="rgba(255, 0, 0, 1)"></use><use xlink:href="#SvgjsPath1015" x="90" y="270" stroke="rgba(255, 0, 0, 1)"></use><use xlink:href="#SvgjsPath1016" x="150" y="30" stroke="rgba(255, 0, 0, 1)"></use><use xlink:href="#SvgjsPath1017" x="150" y="90" stroke="rgba(250, 250, 250, 1)"></use><use xlink:href="#SvgjsPath1014" x="150" y="150" stroke="rgba(250, 250, 250, 1)"></use><use xlink:href="#SvgjsPath1014" x="150" y="210" stroke="rgba(250, 250, 250, 1)"></use><use xlink:href="#SvgjsPath1016" x="150" y="270" stroke="rgba(255, 0, 0, 1)"></use><use xlink:href="#SvgjsPath1016" x="210" y="30" stroke="rgba(255, 0, 0, 1)"></use><use xlink:href="#SvgjsPath1015" x="210" y="90" stroke="rgba(250, 250, 250, 1)"></use><use xlink:href="#SvgjsPath1014" x="210" y="150" stroke="rgba(255, 0, 0, 1)"></use><use xlink:href="#SvgjsPath1014" x="210" y="210" stroke="rgba(255, 0, 0, 1)"></use><use xlink:href="#SvgjsPath1018" x="210" y="270" stroke="rgba(250, 250, 250, 1)"></use><use xlink:href="#SvgjsPath1016" x="270" y="30" stroke="rgba(250, 250, 250, 1)"></use><use xlink:href="#SvgjsPath1014" x="270" y="90" stroke="rgba(250, 250, 250, 1)"></use><use xlink:href="#SvgjsPath1017" x="270" y="150" stroke="rgba(250, 250, 250, 1)"></use><use xlink:href="#SvgjsPath1014" x="270" y="210" stroke="rgba(255, 0, 0, 1)"></use><use xlink:href="#SvgjsPath1014" x="270" y="270" stroke="rgba(250, 250, 250, 1)"></use></g><defs><mask id="SvgjsMask1013"><rect width="250" height="250" fill="#ffffff"></rect></mask><path d="M-1 0 a1 1 0 1 0 2 0 a1 1 0 1 0 -2 0z" id="SvgjsPath1018"></path><path d="M-3 0 a3 3 0 1 0 6 0 a3 3 0 1 0 -6 0z" id="SvgjsPath1017"></path><path d="M-5 0 a5 5 0 1 0 10 0 a5 5 0 1 0 -10 0z" id="SvgjsPath1014"></path><path d="M2 -2 L-2 2z" id="SvgjsPath1015"></path><path d="M6 -6 L-6 6z" id="SvgjsPath1016"></path><path d="M30 -30 L-30 30z"></path></defs></svg>