<svg id="visual" viewBox="0 0 960 540" width="960" height="540" xmlns="http://www.w3.org/2000/svg" xmlns:xlink="http://www.w3.org/1999/xlink" version="1.1"><g stroke-width="1" stroke-linejoin="bevel"><path d="M438.4 239.4L532.6 225.4L443.4 175.3Z" fill="#b91624" stroke="#b91624"></path><path d="M532.6 225.4L535.6 136.3L443.4 175.3Z" fill="#b11226" stroke="#b11226"></path><path d="M438.4 239.4L544.6 301.6L532.6 225.4Z" fill="#b91624" stroke="#b91624"></path><path d="M532.6 225.4L615.9 166.3L535.6 136.3Z" fill="#b91624" stroke="#b91624"></path><path d="M438.4 239.4L450.4 319.6L544.6 301.6Z" fill="#a10c28" stroke="#a10c28"></path><path d="M443.4 175.3L358.1 252.4L438.4 239.4Z" fill="#b91624" stroke="#b91624"></path><path d="M438.4 239.4L375.1 316.6L450.4 319.6Z" fill="#a90f27" stroke="#a90f27"></path><path d="M626.9 210.4L615.9 166.3L532.6 225.4Z" fill="#b11226" stroke="#b11226"></path><path d="M605.9 293.6L626.9 210.4L532.6 225.4Z" fill="#a10c28" stroke="#a10c28"></path><path d="M589.9 91.1L520.6 70.1L535.6 136.3Z" fill="#a10c28" stroke="#a10c28"></path><path d="M535.6 136.3L434.4 65.1L443.4 175.3Z" fill="#c51c21" stroke="#c51c21"></path><path d="M443.4 175.3L333.1 166.3L358.1 252.4Z" fill="#b11226" stroke="#b11226"></path><path d="M596.9 373.7L605.9 293.6L544.6 301.6Z" fill="#b51425" stroke="#b51425"></path><path d="M544.6 301.6L605.9 293.6L532.6 225.4Z" fill="#a90f27" stroke="#a90f27"></path><path d="M358.1 252.4L375.1 316.6L438.4 239.4Z" fill="#9d0b28" stroke="#9d0b28"></path><path d="M409.4 365.7L511.6 359.7L450.4 319.6Z" fill="#b51425" stroke="#b51425"></path><path d="M450.4 319.6L511.6 359.7L544.6 301.6Z" fill="#a50d27" stroke="#a50d27"></path><path d="M520.6 70.1L434.4 65.1L535.6 136.3Z" fill="#ad1027" stroke="#ad1027"></path><path d="M360.1 92.1L333.1 166.3L443.4 175.3Z" fill="#a50d27" stroke="#a50d27"></path><path d="M275.8 294.6L369.1 361.7L375.1 316.6Z" fill="#b91624" stroke="#b91624"></path><path d="M615.9 166.3L589.9 91.1L535.6 136.3Z" fill="#ad1027" stroke="#ad1027"></path><path d="M434.4 65.1L360.1 92.1L443.4 175.3Z" fill="#9d0b28" stroke="#9d0b28"></path><path d="M375.1 316.6L409.4 365.7L450.4 319.6Z" fill="#b51425" stroke="#b51425"></path><path d="M275.8 294.6L375.1 316.6L358.1 252.4Z" fill="#c51c21" stroke="#c51c21"></path><path d="M375.1 316.6L369.1 361.7L409.4 365.7Z" fill="#bd1823" stroke="#bd1823"></path><path d="M511.6 359.7L596.9 373.7L544.6 301.6Z" fill="#a50d27" stroke="#a50d27"></path><path d="M605.9 293.6L686.2 242.4L626.9 210.4Z" fill="#b91624" stroke="#b91624"></path><path d="M529.6 471.9L596.9 373.7L511.6 359.7Z" fill="#b11226" stroke="#b11226"></path><path d="M280.8 137.3L277.8 232.4L333.1 166.3Z" fill="#a10c28" stroke="#a10c28"></path><path d="M333.1 166.3L277.8 232.4L358.1 252.4Z" fill="#9d0b28" stroke="#9d0b28"></path><path d="M709.2 327.6L686.2 242.4L605.9 293.6Z" fill="#b11226" stroke="#b11226"></path><path d="M626.9 210.4L702.2 140.3L615.9 166.3Z" fill="#c51c21" stroke="#c51c21"></path><path d="M615.9 166.3L702.2 140.3L589.9 91.1Z" fill="#c51c21" stroke="#c51c21"></path><path d="M544.6 0L453.4 0L520.6 70.1Z" fill="#b51425" stroke="#b51425"></path><path d="M520.6 70.1L453.4 0L434.4 65.1Z" fill="#a50d27" stroke="#a50d27"></path><path d="M434.4 65.1L343.1 0L360.1 92.1Z" fill="#a50d27" stroke="#a50d27"></path><path d="M267.8 84.1L280.8 137.3L360.1 92.1Z" fill="#ad1027" stroke="#ad1027"></path><path d="M360.1 92.1L280.8 137.3L333.1 166.3Z" fill="#9d0b28" stroke="#9d0b28"></path><path d="M607.9 0L544.6 0L589.9 91.1Z" fill="#c11a22" stroke="#c11a22"></path><path d="M589.9 91.1L544.6 0L520.6 70.1Z" fill="#b91624" stroke="#b91624"></path><path d="M177.5 229.4L275.8 294.6L277.8 232.4Z" fill="#b91624" stroke="#b91624"></path><path d="M277.8 232.4L275.8 294.6L358.1 252.4Z" fill="#c11a22" stroke="#c11a22"></path><path d="M686.2 242.4L702.2 140.3L626.9 210.4Z" fill="#bd1823" stroke="#bd1823"></path><path d="M711.2 62.1L607.9 0L589.9 91.1Z" fill="#a50d27" stroke="#a50d27"></path><path d="M343.1 0L267.8 84.1L360.1 92.1Z" fill="#a90f27" stroke="#a90f27"></path><path d="M280.8 137.3L199.5 138.3L277.8 232.4Z" fill="#b91624" stroke="#b91624"></path><path d="M453.4 0L343.1 0L434.4 65.1Z" fill="#b91624" stroke="#b91624"></path><path d="M369.1 361.7L364.1 436.9L409.4 365.7Z" fill="#a50d27" stroke="#a50d27"></path><path d="M409.4 365.7L439.4 469.9L511.6 359.7Z" fill="#ad1027" stroke="#ad1027"></path><path d="M254.8 402.7L364.1 436.9L369.1 361.7Z" fill="#c51c21" stroke="#c51c21"></path><path d="M683.2 386.7L709.2 327.6L605.9 293.6Z" fill="#b11226" stroke="#b11226"></path><path d="M686.2 242.4L798.5 163.3L702.2 140.3Z" fill="#a10c28" stroke="#a10c28"></path><path d="M364.1 436.9L439.4 469.9L409.4 365.7Z" fill="#c11a22" stroke="#c11a22"></path><path d="M596.9 373.7L683.2 386.7L605.9 293.6Z" fill="#bd1823" stroke="#bd1823"></path><path d="M439.4 469.9L529.6 471.9L511.6 359.7Z" fill="#b91624" stroke="#b91624"></path><path d="M606.9 454.9L683.2 386.7L596.9 373.7Z" fill="#bd1823" stroke="#bd1823"></path><path d="M795.5 53.1L711.2 62.1L702.2 140.3Z" fill="#a90f27" stroke="#a90f27"></path><path d="M702.2 140.3L711.2 62.1L589.9 91.1Z" fill="#a10c28" stroke="#a10c28"></path><path d="M529.6 471.9L606.9 454.9L596.9 373.7Z" fill="#a90f27" stroke="#a90f27"></path><path d="M187.5 94.1L199.5 138.3L267.8 84.1Z" fill="#9d0b28" stroke="#9d0b28"></path><path d="M267.8 84.1L199.5 138.3L280.8 137.3Z" fill="#c11a22" stroke="#c11a22"></path><path d="M275.8 294.6L254.8 402.7L369.1 361.7Z" fill="#ad1027" stroke="#ad1027"></path><path d="M359.1 540L443.4 540L439.4 469.9Z" fill="#b11226" stroke="#b11226"></path><path d="M190.5 392.7L254.8 402.7L275.8 294.6Z" fill="#ad1027" stroke="#ad1027"></path><path d="M799.5 397.7L767.5 311.6L709.2 327.6Z" fill="#a50d27" stroke="#a50d27"></path><path d="M709.2 327.6L767.5 311.6L686.2 242.4Z" fill="#b51425" stroke="#b51425"></path><path d="M799.5 397.7L709.2 327.6L683.2 386.7Z" fill="#b11226" stroke="#b11226"></path><path d="M767.5 311.6L782.5 253.4L686.2 242.4Z" fill="#c51c21" stroke="#c51c21"></path><path d="M199.5 138.3L177.5 229.4L277.8 232.4Z" fill="#bd1823" stroke="#bd1823"></path><path d="M343.1 0L250.8 0L267.8 84.1Z" fill="#b51425" stroke="#b51425"></path><path d="M197.5 0L187.5 94.1L267.8 84.1Z" fill="#a50d27" stroke="#a50d27"></path><path d="M199.5 138.3L92.3 146.3L177.5 229.4Z" fill="#b51425" stroke="#b51425"></path><path d="M782.5 253.4L798.5 163.3L686.2 242.4Z" fill="#a10c28" stroke="#a10c28"></path><path d="M711.2 62.1L724.2 0L607.9 0Z" fill="#a90f27" stroke="#a90f27"></path><path d="M795.5 53.1L724.2 0L711.2 62.1Z" fill="#b91624" stroke="#b91624"></path><path d="M692.2 540L703.2 443.9L606.9 454.9Z" fill="#c51c21" stroke="#c51c21"></path><path d="M606.9 454.9L703.2 443.9L683.2 386.7Z" fill="#a90f27" stroke="#a90f27"></path><path d="M439.4 469.9L443.4 540L529.6 471.9Z" fill="#a90f27" stroke="#a90f27"></path><path d="M529.6 471.9L600.9 540L606.9 454.9Z" fill="#b11226" stroke="#b11226"></path><path d="M359.1 540L439.4 469.9L364.1 436.9Z" fill="#b11226" stroke="#b11226"></path><path d="M443.4 540L543.6 540L529.6 471.9Z" fill="#a90f27" stroke="#a90f27"></path><path d="M190.5 392.7L255.8 457.9L254.8 402.7Z" fill="#a50d27" stroke="#a50d27"></path><path d="M254.8 402.7L255.8 457.9L364.1 436.9Z" fill="#9d0b28" stroke="#9d0b28"></path><path d="M152.5 316.6L190.5 392.7L275.8 294.6Z" fill="#c11a22" stroke="#c11a22"></path><path d="M64.3 208.4L152.5 316.6L177.5 229.4Z" fill="#a10c28" stroke="#a10c28"></path><path d="M177.5 229.4L152.5 316.6L275.8 294.6Z" fill="#ad1027" stroke="#ad1027"></path><path d="M543.6 540L600.9 540L529.6 471.9Z" fill="#b91624" stroke="#b91624"></path><path d="M798.5 163.3L795.5 53.1L702.2 140.3Z" fill="#9d0b28" stroke="#9d0b28"></path><path d="M255.8 457.9L359.1 540L364.1 436.9Z" fill="#c51c21" stroke="#c51c21"></path><path d="M250.8 0L197.5 0L267.8 84.1Z" fill="#a10c28" stroke="#a10c28"></path><path d="M187.5 94.1L92.3 146.3L199.5 138.3Z" fill="#a10c28" stroke="#a10c28"></path><path d="M767.5 311.6L878.7 321.6L782.5 253.4Z" fill="#c11a22" stroke="#c11a22"></path><path d="M894.7 247.4L888.7 134.3L798.5 163.3Z" fill="#bd1823" stroke="#bd1823"></path><path d="M703.2 443.9L799.5 397.7L683.2 386.7Z" fill="#c11a22" stroke="#c11a22"></path><path d="M768.5 485.9L799.5 397.7L703.2 443.9Z" fill="#9d0b28" stroke="#9d0b28"></path><path d="M888.7 134.3L795.5 53.1L798.5 163.3Z" fill="#9d0b28" stroke="#9d0b28"></path><path d="M855.7 0L805.5 0L795.5 53.1Z" fill="#9d0b28" stroke="#9d0b28"></path><path d="M795.5 53.1L805.5 0L724.2 0Z" fill="#b11226" stroke="#b11226"></path><path d="M600.9 540L692.2 540L606.9 454.9Z" fill="#a90f27" stroke="#a90f27"></path><path d="M166.5 483.9L264.8 540L255.8 457.9Z" fill="#c51c21" stroke="#c51c21"></path><path d="M255.8 457.9L264.8 540L359.1 540Z" fill="#a10c28" stroke="#a10c28"></path><path d="M69.3 73.1L92.3 146.3L187.5 94.1Z" fill="#a50d27" stroke="#a50d27"></path><path d="M692.2 540L768.5 485.9L703.2 443.9Z" fill="#b91624" stroke="#b91624"></path><path d="M879.7 405.7L878.7 321.6L799.5 397.7Z" fill="#c51c21" stroke="#c51c21"></path><path d="M799.5 397.7L878.7 321.6L767.5 311.6Z" fill="#c11a22" stroke="#c11a22"></path><path d="M894.7 247.4L798.5 163.3L782.5 253.4Z" fill="#b91624" stroke="#b91624"></path><path d="M878.7 321.6L894.7 247.4L782.5 253.4Z" fill="#c11a22" stroke="#c11a22"></path><path d="M190.5 392.7L166.5 483.9L255.8 457.9Z" fill="#a50d27" stroke="#a50d27"></path><path d="M60.3 467.9L166.5 483.9L190.5 392.7Z" fill="#bd1823" stroke="#bd1823"></path><path d="M68.3 366.7L190.5 392.7L152.5 316.6Z" fill="#ad1027" stroke="#ad1027"></path><path d="M92.3 146.3L64.3 208.4L177.5 229.4Z" fill="#c11a22" stroke="#c11a22"></path><path d="M886.7 59.1L855.7 0L795.5 53.1Z" fill="#c11a22" stroke="#c11a22"></path><path d="M960 88.1L886.7 59.1L888.7 134.3Z" fill="#ad1027" stroke="#ad1027"></path><path d="M888.7 134.3L886.7 59.1L795.5 53.1Z" fill="#ad1027" stroke="#ad1027"></path><path d="M64.3 208.4L62.3 319.6L152.5 316.6Z" fill="#b51425" stroke="#b51425"></path><path d="M0 127.3L0 228.4L64.3 208.4Z" fill="#a10c28" stroke="#a10c28"></path><path d="M98.3 0L69.3 73.1L187.5 94.1Z" fill="#a10c28" stroke="#a10c28"></path><path d="M197.5 0L98.3 0L187.5 94.1Z" fill="#a10c28" stroke="#a10c28"></path><path d="M62.3 319.6L68.3 366.7L152.5 316.6Z" fill="#b91624" stroke="#b91624"></path><path d="M960 253.4L960 170.3L894.7 247.4Z" fill="#bd1823" stroke="#bd1823"></path><path d="M897.7 442.9L879.7 405.7L799.5 397.7Z" fill="#c11a22" stroke="#c11a22"></path><path d="M692.2 540L796.5 540L768.5 485.9Z" fill="#bd1823" stroke="#bd1823"></path><path d="M768.5 485.9L897.7 442.9L799.5 397.7Z" fill="#ad1027" stroke="#ad1027"></path><path d="M90.3 540L164.5 540L166.5 483.9Z" fill="#a90f27" stroke="#a90f27"></path><path d="M166.5 483.9L164.5 540L264.8 540Z" fill="#b91624" stroke="#b91624"></path><path d="M855.7 540L897.7 442.9L768.5 485.9Z" fill="#c11a22" stroke="#c11a22"></path><path d="M960 302.6L894.7 247.4L878.7 321.6Z" fill="#ad1027" stroke="#ad1027"></path><path d="M894.7 247.4L960 170.3L888.7 134.3Z" fill="#b91624" stroke="#b91624"></path><path d="M886.7 59.1L960 0L855.7 0Z" fill="#b11226" stroke="#b11226"></path><path d="M960 253.4L894.7 247.4L960 302.6Z" fill="#c51c21" stroke="#c51c21"></path><path d="M960 302.6L878.7 321.6L960 366.7Z" fill="#a50d27" stroke="#a50d27"></path><path d="M62.3 319.6L0 364.7L68.3 366.7Z" fill="#9d0b28" stroke="#9d0b28"></path><path d="M64.3 208.4L0 228.4L62.3 319.6Z" fill="#a50d27" stroke="#a50d27"></path><path d="M0 127.3L64.3 208.4L92.3 146.3Z" fill="#9d0b28" stroke="#9d0b28"></path><path d="M0 127.3L92.3 146.3L69.3 73.1Z" fill="#a90f27" stroke="#a90f27"></path><path d="M960 366.7L878.7 321.6L879.7 405.7Z" fill="#a50d27" stroke="#a50d27"></path><path d="M0 90.1L0 127.3L69.3 73.1Z" fill="#c51c21" stroke="#c51c21"></path><path d="M0 228.4L0 308.6L62.3 319.6Z" fill="#b91624" stroke="#b91624"></path><path d="M68.3 366.7L60.3 467.9L190.5 392.7Z" fill="#c11a22" stroke="#c11a22"></path><path d="M960 170.3L960 88.1L888.7 134.3Z" fill="#b51425" stroke="#b51425"></path><path d="M0 438.9L60.3 467.9L68.3 366.7Z" fill="#b11226" stroke="#b11226"></path><path d="M0 0L0 90.1L69.3 73.1Z" fill="#9d0b28" stroke="#9d0b28"></path><path d="M796.5 540L855.7 540L768.5 485.9Z" fill="#c51c21" stroke="#c51c21"></path><path d="M897.7 442.9L960 366.7L879.7 405.7Z" fill="#ad1027" stroke="#ad1027"></path><path d="M960 445.9L960 366.7L897.7 442.9Z" fill="#9d0b28" stroke="#9d0b28"></path><path d="M0 308.6L0 364.7L62.3 319.6Z" fill="#a90f27" stroke="#a90f27"></path><path d="M60.3 467.9L90.3 540L166.5 483.9Z" fill="#b11226" stroke="#b11226"></path><path d="M0 540L90.3 540L60.3 467.9Z" fill="#c51c21" stroke="#c51c21"></path><path d="M960 88.1L960 0L886.7 59.1Z" fill="#a90f27" stroke="#a90f27"></path><path d="M98.3 0L0 0L69.3 73.1Z" fill="#b91624" stroke="#b91624"></path><path d="M960 540L960 445.9L897.7 442.9Z" fill="#ad1027" stroke="#ad1027"></path><path d="M0 364.7L0 438.9L68.3 366.7Z" fill="#c51c21" stroke="#c51c21"></path><path d="M855.7 540L960 540L897.7 442.9Z" fill="#a90f27" stroke="#a90f27"></path><path d="M0 438.9L0 540L60.3 467.9Z" fill="#a50d27" stroke="#a50d27"></path></g></svg>