<svg xmlns="http://www.w3.org/2000/svg" version="1.1" xmlns:xlink="http://www.w3.org/1999/xlink" xmlns:svgjs="http://svgjs.com/svgjs" width="1920" height="1080" preserveAspectRatio="none" viewBox="0 0 1920 1080"><g clip-path="url(&quot;#SvgjsClipPath1039&quot;)" fill="none"><circle r="180" cx="-1.79" cy="102.93" stroke="#fafafa" stroke-opacity="1" stroke-width="2"></circle><circle r="180" cx="862.11" cy="839.25" stroke="#fafafa" stroke-opacity="1" stroke-width="2"></circle><circle r="286.53" cx="650.44" cy="1067.63" stroke="#fafafa" stroke-opacity="1" stroke-width="2"></circle><circle r="127.21" cx="848.11" cy="847.57" stroke="#fafafa" stroke-opacity="1" stroke-width="2"></circle><circle r="280.67" cx="1240.99" cy="38.34" stroke="#fafafa" stroke-opacity="1" stroke-width="2"></circle><circle r="310.815" cx="1573.48" cy="739.65" stroke="#fafafa" stroke-opacity="1" stroke-width="2"></circle><circle r="222.675" cx="1030.67" cy="983.54" stroke="#fafafa" stroke-opacity="1" stroke-width="2"></circle><circle r="337.93" cx="659.25" cy="15.64" stroke="#fafafa" stroke-opacity="1" stroke-width="2"></circle><circle r="305.845" cx="1876.86" cy="822.55" stroke="#fafafa" stroke-opacity="1" stroke-width="2"></circle><circle r="233.09" cx="0.69" cy="157.37" stroke="#fafafa" stroke-opacity="1" stroke-width="2"></circle><circle r="193.625" cx="587.33" cy="209.86" stroke="#fafafa" stroke-opacity="1" stroke-width="2"></circle><circle r="354.37" cx="170.51" cy="208.94" stroke="#fafafa" stroke-opacity="1" stroke-width="2"></circle><circle r="319.13" cx="436.87" cy="164.03" stroke="#fafafa" stroke-opacity="1" stroke-width="2"></circle><circle r="149.15" cx="1489.89" cy="428.14" stroke="#fafafa" stroke-opacity="1" stroke-width="2"></circle><circle r="324.01" cx="1267.22" cy="928.09" stroke="#fafafa" stroke-opacity="1" stroke-width="2"></circle><circle r="269.095" cx="1893.83" cy="458.89" stroke="#fafafa" stroke-opacity="1" stroke-width="2"></circle><circle r="184.29" cx="1409.15" cy="321.79" stroke="#fafafa" stroke-opacity="1" stroke-width="2"></circle><circle r="311.235" cx="1394.1" cy="272.06" stroke="#fafafa" stroke-opacity="1" stroke-width="2"></circle><circle r="195.11" cx="157.41" cy="417.17" stroke="#fafafa" stroke-opacity="1" stroke-width="2"></circle><circle r="216.385" cx="221.01" cy="1064.4" stroke="#fafafa" stroke-opacity="1" stroke-width="2"></circle><circle r="341.71" cx="1912.19" cy="423.36" stroke="#fafafa" stroke-opacity="1" stroke-width="2"></circle><circle r="326.15" cx="1855.92" cy="541.57" stroke="#fafafa" stroke-opacity="1" stroke-width="2"></circle><circle r="227.625" cx="1013.92" cy="577.39" stroke="#fafafa" stroke-opacity="1" stroke-width="2"></circle><circle r="200.965" cx="732.09" cy="1068.41" stroke="#fafafa" stroke-opacity="1" stroke-width="2"></circle><circle r="208.675" cx="1671.69" cy="154.97" stroke="#fafafa" stroke-opacity="1" stroke-width="2"></circle><circle r="106.49" cx="385.14" cy="706.36" stroke="#fafafa" stroke-opacity="1" stroke-width="2"></circle></g><defs><clipPath id="SvgjsClipPath1039"><rect width="1920" height="1080" x="0" y="0"></rect></clipPath></defs></svg>