<svg id="visual" viewBox="0 0 960 540" width="960" height="540" xmlns="http://www.w3.org/2000/svg" xmlns:xlink="http://www.w3.org/1999/xlink" version="1.1"><g><g transform="translate(19 156)"><path d="M0 -70L49.5 -49.5L70 0L49.5 49.5L0 70L-49.5 49.5L-70 0L-49.5 -49.5Z" fill="none" stroke="#C51C21" stroke-width="1"></path></g><g transform="translate(198 132)"><path d="M0 -57L40.3 -40.3L57 0L40.3 40.3L0 57L-40.3 40.3L-57 0L-40.3 -40.3Z" fill="none" stroke="#C51C21" stroke-width="1"></path></g><g transform="translate(293 385)"><path d="M0 -65L46 -46L65 0L46 46L0 65L-46 46L-65 0L-46 -46Z" fill="none" stroke="#C51C21" stroke-width="1"></path></g><g transform="translate(734 359)"><path d="M0 -66L46.7 -46.7L66 0L46.7 46.7L0 66L-46.7 46.7L-66 0L-46.7 -46.7Z" stroke="#C51C21" fill="none" stroke-width="1"></path></g><g transform="translate(687 40)"><path d="M0 -49L34.6 -34.6L49 0L34.6 34.6L0 49L-34.6 34.6L-49 0L-34.6 -34.6Z" stroke="#C51C21" fill="none" stroke-width="1"></path></g><g transform="translate(600 489)"><path d="M0 -67L47.4 -47.4L67 0L47.4 47.4L0 67L-47.4 47.4L-67 0L-47.4 -47.4Z" stroke="#C51C21" fill="none" stroke-width="1"></path></g><g transform="translate(462 153)"><path d="M0 -69L48.8 -48.8L69 0L48.8 48.8L0 69L-48.8 48.8L-69 0L-48.8 -48.8Z" stroke="#C51C21" fill="none" stroke-width="1"></path></g><g transform="translate(104 444)"><path d="M0 -35L24.7 -24.7L35 0L24.7 24.7L0 35L-24.7 24.7L-35 0L-24.7 -24.7Z" stroke="#C51C21" fill="none" stroke-width="1"></path></g><g transform="translate(815 501)"><path d="M0 -54L38.2 -38.2L54 0L38.2 38.2L0 54L-38.2 38.2L-54 0L-38.2 -38.2Z" stroke="#C51C21" fill="none" stroke-width="1"></path></g><g transform="translate(861 161)"><path d="M0 -43L30.4 -30.4L43 0L30.4 30.4L0 43L-30.4 30.4L-43 0L-30.4 -30.4Z" stroke="#C51C21" fill="none" stroke-width="1"></path></g><g transform="translate(906 379)"><path d="M0 -43L30.4 -30.4L43 0L30.4 30.4L0 43L-30.4 30.4L-43 0L-30.4 -30.4Z" stroke="#C51C21" fill="none" stroke-width="1"></path></g><g transform="translate(392 29)"><path d="M0 -48L33.9 -33.9L48 0L33.9 33.9L0 48L-33.9 33.9L-48 0L-33.9 -33.9Z" stroke="#C51C21" fill="none" stroke-width="1"></path></g><g transform="translate(326 225)"><path d="M0 -57L40.3 -40.3L57 0L40.3 40.3L0 57L-40.3 40.3L-57 0L-40.3 -40.3Z" stroke="#C51C21" fill="none" stroke-width="1"></path></g><g transform="translate(168 287)"><path d="M0 -57L40.3 -40.3L57 0L40.3 40.3L0 57L-40.3 40.3L-57 0L-40.3 -40.3Z" stroke="#C51C21" fill="none" stroke-width="1"></path></g><g transform="translate(520 333)"><path d="M0 -37L26.2 -26.2L37 0L26.2 26.2L0 37L-26.2 26.2L-37 0L-26.2 -26.2Z" stroke="#C51C21" fill="none" stroke-width="1"></path></g><g transform="translate(901 21)"><path d="M0 -64L45.3 -45.3L64 0L45.3 45.3L0 64L-45.3 45.3L-64 0L-45.3 -45.3Z" stroke="#C51C21" fill="none" stroke-width="1"></path></g><g transform="translate(445 539)"><path d="M0 -46L32.5 -32.5L46 0L32.5 32.5L0 46L-32.5 32.5L-46 0L-32.5 -32.5Z" stroke="#C51C21" fill="none" stroke-width="1"></path></g><g transform="translate(625 222)"><path d="M0 -57L40.3 -40.3L57 0L40.3 40.3L0 57L-40.3 40.3L-57 0L-40.3 -40.3Z" stroke="#C51C21" fill="none" stroke-width="1"></path></g><g transform="translate(61 21)"><path d="M0 -64L45.3 -45.3L64 0L45.3 45.3L0 64L-45.3 45.3L-64 0L-45.3 -45.3Z" stroke="#C51C21" fill="none" stroke-width="1"></path></g><g transform="translate(231 515)"><path d="M0 -40L28.3 -28.3L40 0L28.3 28.3L0 40L-28.3 28.3L-40 0L-28.3 -28.3Z" stroke="#C51C21" fill="none" stroke-width="1"></path></g><g transform="translate(6 297)"><path d="M0 -55L38.9 -38.9L55 0L38.9 38.9L0 55L-38.9 38.9L-55 0L-38.9 -38.9Z" stroke="#C51C21" fill="none" stroke-width="1"></path></g><g transform="translate(951 538)"><path d="M0 -57L40.3 -40.3L57 0L40.3 40.3L0 57L-40.3 40.3L-57 0L-40.3 -40.3Z" stroke="#C51C21" fill="none" stroke-width="1"></path></g></g></svg>